<svg xmlns="http://www.w3.org/2000/svg" viewBox="0 0 100 50" width="100" height="50">
	<style>
		tspan { white-space:pre }
		.shp0 { fill: #ffffff } 
	</style>
	<path id="Layer" class="shp0" d="M7.58,11.12h14.2c4.17,0.04 7.19,1.24 9.06,3.6c1.87,2.37 2.49,5.6 1.85,9.7c-0.25,1.87 -0.8,3.71 -1.64,5.51c-0.81,1.8 -1.94,3.43 -3.39,4.88c-1.77,1.84 -3.66,3 -5.67,3.5c-2.01,0.49 -4.1,0.74 -6.25,0.74h-6.36l-2.01,10.07h-7.37c0,0 7.58,-38 7.58,-38zM13.78,17.16l-0.05,0.05c0.01,0 0.03,0 0.04,0c0,0 0.01,-0.05 0.01,-0.05zM10.6,33.07c0.21,0.03 0.42,0.05 0.64,0.05c0.25,0 0.49,0 0.74,0c3.39,0.03 6.22,-0.3 8.48,-1.01c2.26,-0.74 3.78,-3.32 4.56,-7.74c0.64,-3.71 0,-5.85 -1.91,-6.41c-1.87,-0.57 -4.22,-0.83 -7.05,-0.8c-0.42,0.04 -0.83,0.05 -1.22,0.05c-0.34,0 -0.7,0 -1.07,0z" />
	<path id="Layer" class="shp0" d="M41.09,1l-7.63,38.05h7.31l4.35,-21.78l5.88,0.05c1.87,0 3.09,0.37 3.66,1.11c0.56,0.74 0.67,2 0.32,3.76l-3.39,16.85h7.42l3.55,-17.65c0.74,-3.96 0.21,-6.64 -1.59,-8.06c-1.77,-1.41 -4.45,-2.16 -8.06,-2.23h-6.57l2.07,-10.12h-7.31z" />
	<path id="Layer" class="shp0" d="M70.41,11.12h14.2c4.17,0.04 7.19,1.24 9.06,3.6c1.87,2.37 2.49,5.6 1.86,9.7c-0.25,1.87 -0.8,3.71 -1.64,5.51c-0.81,1.8 -1.94,3.43 -3.39,4.88c-1.77,1.84 -3.66,3 -5.67,3.5c-2.01,0.49 -4.1,0.74 -6.25,0.74h-6.36l-2.01,10.07h-7.37c0,0 7.58,-38 7.58,-38zM76.61,17.16l-0.05,0.05c0.01,0 0.03,0 0.04,0c0,0 0.01,-0.05 0.01,-0.05zM73.43,33.07c0.21,0.03 0.42,0.05 0.64,0.05c0.25,0 0.5,0 0.74,0c3.39,0.03 6.22,-0.3 8.48,-1.01c2.26,-0.74 3.78,-3.32 4.56,-7.74c0.64,-3.71 0,-5.85 -1.91,-6.41c-1.87,-0.57 -4.22,-0.83 -7.05,-0.8c-0.42,0.04 -0.83,0.05 -1.22,0.05c-0.34,0 -0.7,0 -1.07,0z" />
</svg>