<svg xmlns="http://www.w3.org/2000/svg" viewBox="0 0 1142 856" width="1142" height="856">
	<defs>
		<clipPath clipPathUnits="userSpaceOnUse" id="cp1">
			<path d="M0 0L1142 0L1142 856L0 856Z" />
		</clipPath>
	</defs>
	<style>
		tspan { white-space:pre }
		.shp0 { fill: #ffffff } 
	</style>
	<g id="Page 1" clip-path="url(#cp1)">
		<path id="Path 1" class="shp0" d="M1141.12,619.24c-1.88,47.88 -45.83,67.6 -54,68.98c-5.93,1 -9.15,1.18 -10,-3.47c-0.59,-3.2 1.54,-4.7 8.5,-9c6.96,-4.31 27.78,-18.56 31.5,-44.5c3.72,-25.94 -15.75,-87.91 -115,-99.5c-46.26,-5.4 -82.59,1.1 -110.64,12.78c5.21,13.5 9.05,27.56 9.64,41.72c1.29,31.1 -20.17,54.09 -42.5,70.5c-13.01,9.56 -26.94,15.96 -38.53,19.81c-9.32,3.94 -21.7,7.96 -30.47,6.19c-19.36,-3.91 -29.68,-21.09 -16.5,-59c7.13,-20.5 27.65,-51.75 60.75,-78.64c-7.57,-15.53 -15.98,-31.35 -20.25,-45.86c-8.43,-28.67 -11,-46 -11,-46c0,0 -27.3,56.54 -62.5,108c-2.04,2.98 -4.07,5.92 -6.1,8.83c6.91,16.04 12.38,33.03 13.1,50.17c1.29,31.1 -12.17,54.59 -34.5,71c-12.1,8.89 -24.99,15.05 -36.06,18.96c-7.1,3.09 -21.49,8.16 -41.95,9.54c-11.21,0.76 -21.96,0.05 -28,-4.5c-8.26,-6.23 -9.27,-13.97 -5,-24.5c3.63,-8.94 30.74,-39.89 53.5,-67c6.27,-7.47 12.26,-15.12 17.61,-22.22c-0.07,-0.18 -0.11,-0.28 -0.11,-0.28c0,0 4.11,-5.33 10.8,-14.61c-8.31,-17.88 -18.84,-36.52 -23.8,-53.39c-8.43,-28.66 -11,-46 -11,-46c0,0 -27.66,70.9 -56.5,127.5c-22.32,43.81 -37.2,70.37 -43.91,82.02c-0.05,0.3 -0.09,0.48 -0.09,0.48c0,0 -0.98,1.69 -2.71,4.34c-0.85,1.44 -1.29,2.16 -1.29,2.16c0,0 -0.01,-0.06 -0.03,-0.19c-7.48,11.04 -24.27,32.69 -40.97,32.69c-45.82,0 -29,-93 -29,-93c0,0 -13.4,34.43 -28.5,64c-12.31,24.11 -23.49,44.5 -48,44.5c-7.07,0 -18.23,-0.21 -27.5,-9c-21.06,-19.97 -37.15,-70.73 -34,-110c2.69,-33.43 7.85,-56.57 14.89,-75.88c-12.6,6.85 -27.11,14.95 -41.89,23.64c-7.58,4.45 -15.23,8.97 -22.73,13.41c0.24,0.45 0.5,0.89 0.73,1.34c18.83,36.37 23.84,116.06 -17.19,177.25c-41.04,61.21 -117.4,98.45 -191.81,77.75c-24.02,-6.68 -60.29,-56.32 -29,-125.5c27.59,-60.99 137.89,-118.71 166.94,-133.08c2.44,-1.35 5.12,-2.83 7.98,-4.4c-57.94,-50.67 -202.64,-119.03 -222.92,-224.01c-5.71,-29.55 8.14,-100.26 95,-181.5c73.05,-68.33 174.65,-120.66 268.5,-154c157.69,-56.02 324.31,-22.99 349.94,77.5c25.2,98.8 -60.58,217.01 -170.44,259.5c-98.08,37.94 -179.18,31.93 -212.5,21c-37.87,-12.43 -60.09,-37.41 -65.5,-51.5c-2.12,-5.52 -5.79,-14.79 0,-18c3.56,-1.97 4.98,-1.5 14.5,9c9.05,9.97 45.42,36.74 114.5,29c181.31,-20.32 290.51,-161.2 256,-237c-24.15,-53.06 -163.92,-77 -338.5,10c-213.13,106.2 -224.68,193.75 -226.5,227c-5,91.46 112.88,139.58 176.64,207.61c0.84,0.89 1.65,1.79 2.46,2.69c11.95,-6.58 24.55,-13.52 36.9,-20.3c32.15,-17.67 62.46,-34.21 76.62,-41.94c22.44,-32.6 68,-68.56 100.87,-68.56c52.59,0 34.5,75.5 34.5,75.5c0,0 1.07,-3.47 2.5,-3.5c1.48,-0.03 7.26,-9.94 23.5,-4c16.7,6.12 12.9,17.81 13,19c0.2,2.31 -19.71,69.45 -28,112.5c-3.95,20.54 -1.65,35.5 -0.5,35.5c1.65,0 4.97,-5.22 8.07,-10.84c-0.04,-0.1 -0.07,-0.16 -0.07,-0.16c0,0 2.33,-4.24 6.24,-11.89c0.49,-1.01 0.77,-1.61 0.77,-1.61c0,0 0.02,0.03 0.03,0.05c4.57,-8.99 11.04,-22.16 18.47,-38.55c14.59,-32.17 70.29,-156.27 75,-170c4.71,-13.73 7.19,-27.92 9.5,-34c2.31,-6.08 21.99,-10.66 45,-10.5c23.01,0.17 25.34,9.96 25.5,12c0.16,2.04 -10.96,29.27 -13.5,48.5c-2.54,19.23 -0.1,28.86 2,45c1.38,10.59 8,23.99 15.78,39.17c23.79,-38.92 65.69,-113.32 69.72,-134.18c2.76,-14.25 7.19,-27.93 9.5,-34c2.31,-6.08 21.99,-10.66 45,-10.5c23,0.17 25.34,9.96 25.5,12c0.16,2.04 -10.96,29.27 -13.5,48.5c-2.54,19.23 -0.1,28.86 2,45c1.8,13.83 12.52,32.42 23.11,53.56c28.96,-14.27 63.5,-23.85 103.39,-24.06c103.15,-0.55 161.39,66.22 159,127zM699.1,619.65c0,-0.92 -0.03,-1.84 -0.09,-2.78c-7.16,9.36 -13.74,17.73 -19.41,24.78c-9.75,12.12 -34.5,38.75 -34.5,38.75c0,0 -3.52,3.34 -2,4.25c2.07,1.23 6.52,-0.36 11.37,-2.9c13.74,-8.66 44.56,-30.2 44.63,-62.1zM485.6,481.84c-4.8,-8.14 -24.56,-1.57 -42.5,18.5c-11.15,12.47 -30.12,44.61 -39,71.5c-17.65,53.43 -10.02,107.71 2.5,111c14.59,3.83 38.55,-67.59 50,-95.5c7.18,-17.5 35.12,-95.13 29,-105.5zM251.16,610.65c-1.75,1.04 -3.44,2.06 -5.09,3.05l0.03,0.05c0,0 -0.8,0.45 -2.22,1.26c-8.56,5.13 -15.6,9.36 -20.39,12.25c-21.06,13.16 -52.8,34.52 -77.39,57.71c-40.34,38.06 -48.77,90.86 -27.5,103.19c19.69,11.42 65.62,-2.14 98.5,-38c34.51,-37.64 48.74,-85.33 34.06,-139.5zM853.1,585.65c0.04,-6.02 -1.27,-12.48 -3.42,-19.22c-18.54,16.39 -29.21,33.54 -33.89,43.72c-11.91,25.94 -12.51,34.27 -8.89,36.85c17.32,-6.22 45.96,-21.21 46.2,-61.35z" />
	</g>
</svg>