<svg xmlns="http://www.w3.org/2000/svg" viewBox="0 0 32 32" width="32" height="32">
	<style>
		tspan { white-space:pre }
		.shp0 { fill: #ffffff } 
	</style>
	<path id="Layer" class="shp0" d="M21.77,9.53c1.96,1.14 3.53,2.83 4.53,4.86c1,2.03 1.37,4.31 1.08,6.56c-0.3,2.24 -1.25,4.35 -2.74,6.06c-1.49,1.7 -3.45,2.93 -5.64,3.52c-0.24,0.06 -0.49,0.12 -0.74,0.17c-0.25,0.05 -0.5,0.09 -0.75,0.12c-0.25,0.03 -0.5,0.06 -0.75,0.07c-0.25,0.02 -0.51,0.02 -0.76,0.02c-0.5,0 -1,-0.03 -1.5,-0.1c-0.5,-0.07 -0.99,-0.16 -1.47,-0.29c-0.48,-0.13 -0.96,-0.29 -1.42,-0.48c-0.46,-0.19 -0.91,-0.41 -1.35,-0.67c-0.61,-0.35 -1.18,-0.75 -1.72,-1.21c-0.53,-0.45 -1.02,-0.96 -1.47,-1.5c-0.44,-0.54 -0.83,-1.13 -1.17,-1.74c-0.34,-0.62 -0.61,-1.26 -0.83,-1.93c-0.04,-0.1 -0.05,-0.2 -0.05,-0.31c0,-0.1 0.03,-0.21 0.08,-0.3c0.05,-0.09 0.11,-0.18 0.19,-0.24c0.08,-0.07 0.17,-0.12 0.27,-0.15c0.1,-0.03 0.2,-0.04 0.3,-0.03c0.1,0.01 0.2,0.04 0.29,0.09c0.09,0.05 0.17,0.11 0.23,0.19c0.06,0.08 0.11,0.17 0.13,0.27c0.11,0.32 0.23,0.63 0.37,0.94c0.14,0.31 0.29,0.61 0.46,0.9c0.17,0.29 0.35,0.58 0.55,0.85c0.2,0.27 0.41,0.54 0.63,0.79c-0.02,-0.27 -0.03,-0.54 -0.03,-0.82c0,-0.27 0.01,-0.54 0.03,-0.82c0.02,-0.27 0.05,-0.54 0.09,-0.81c0.04,-0.27 0.09,-0.54 0.15,-0.8c-0.37,-0.36 -0.72,-0.74 -1.05,-1.14c-0.32,-0.4 -0.62,-0.82 -0.89,-1.26c-0.27,-0.44 -0.51,-0.9 -0.72,-1.37c-0.21,-0.47 -0.39,-0.96 -0.54,-1.45c-0.09,-0.31 -0.15,-0.64 -0.18,-0.96c-0.03,-0.33 -0.02,-0.65 0.01,-0.98c0.04,-0.32 0.11,-0.65 0.21,-0.96c0.1,-0.31 0.24,-0.61 0.4,-0.89c1.1,-1.82 3.19,-2.86 5.87,-2.9c0.1,0 0.2,0.01 0.29,0.05c0.09,0.04 0.18,0.09 0.25,0.16c0.07,0.07 0.13,0.15 0.17,0.24c0.04,0.09 0.06,0.19 0.06,0.29c0,0.1 -0.01,0.2 -0.05,0.29c-0.04,0.09 -0.09,0.18 -0.16,0.25c-0.07,0.07 -0.15,0.13 -0.24,0.17c-0.09,0.04 -0.19,0.06 -0.29,0.07c-2.19,0.05 -3.84,0.83 -4.63,2.2c-0.11,0.2 -0.2,0.41 -0.27,0.63c-0.07,0.22 -0.12,0.44 -0.14,0.67c-0.02,0.23 -0.03,0.46 0,0.69c0.02,0.23 0.07,0.45 0.13,0.67c0.1,0.37 0.22,0.72 0.37,1.08c0.14,0.35 0.31,0.69 0.49,1.02c0.18,0.33 0.39,0.65 0.61,0.96c0.22,0.31 0.46,0.6 0.72,0.88c0.13,-0.39 0.26,-0.77 0.41,-1.15c0.15,-0.38 0.3,-0.75 0.47,-1.13c0.17,-0.37 0.34,-0.74 0.53,-1.1c0.19,-0.36 0.38,-0.72 0.59,-1.07c1.97,-3.42 4.47,-5.92 6.73,-7c-0.16,-0.03 -0.31,-0.06 -0.47,-0.09c-0.16,-0.03 -0.32,-0.05 -0.48,-0.06c-0.16,-0.02 -0.32,-0.03 -0.48,-0.04c-0.16,-0.01 -0.32,-0.02 -0.48,-0.02c-0.22,0.02 -0.43,-0.04 -0.59,-0.19c-0.16,-0.14 -0.25,-0.35 -0.25,-0.57c0,-0.22 0.09,-0.42 0.25,-0.57c0.16,-0.14 0.38,-0.21 0.59,-0.19c0.5,0 1,0.02 1.5,0.09c0.5,0.06 0.99,0.15 1.47,0.28c0.48,0.13 0.96,0.28 1.42,0.47c0.46,0.19 0.91,0.41 1.35,0.65zM18.58,29.06c0.3,-0.08 0.59,-0.17 0.88,-0.27c0.29,-0.1 0.58,-0.22 0.85,-0.35c0.28,-0.13 0.55,-0.27 0.82,-0.43c0.27,-0.16 0.52,-0.33 0.77,-0.51c-0.2,0.05 -0.4,0.09 -0.6,0.12c-0.2,0.03 -0.4,0.06 -0.6,0.09c-0.2,0.02 -0.4,0.04 -0.61,0.05c-0.2,0.01 -0.41,0.02 -0.61,0.02c-0.61,-0.01 -1.21,-0.06 -1.82,-0.15c-0.6,-0.09 -1.2,-0.22 -1.78,-0.39c-0.58,-0.17 -1.16,-0.38 -1.71,-0.62c-0.56,-0.24 -1.1,-0.52 -1.62,-0.84c-0.22,-0.13 -0.43,-0.26 -0.65,-0.39c-0.21,-0.14 -0.42,-0.27 -0.63,-0.42c-0.21,-0.14 -0.41,-0.29 -0.61,-0.44c-0.2,-0.15 -0.4,-0.31 -0.59,-0.47c-0.27,2 0.08,3.51 0.94,4c0.56,0.33 1.16,0.6 1.78,0.81c0.62,0.21 1.26,0.36 1.9,0.45c0.65,0.09 1.3,0.11 1.95,0.06c0.65,-0.04 1.3,-0.15 1.93,-0.32zM24.64,24.4c0.65,-1.13 1.07,-2.39 1.23,-3.68c0.17,-1.3 0.08,-2.61 -0.26,-3.87c-0.34,-1.26 -0.92,-2.44 -1.72,-3.48c-0.79,-1.04 -1.78,-1.91 -2.91,-2.57c-1.64,-0.95 -5.53,1.54 -8.47,6.62c-0.22,0.39 -0.44,0.78 -0.64,1.18c-0.2,0.4 -0.39,0.8 -0.56,1.21c-0.17,0.41 -0.33,0.83 -0.48,1.25c-0.15,0.42 -0.28,0.85 -0.4,1.27c0.22,0.2 0.45,0.4 0.68,0.59c0.23,0.19 0.47,0.37 0.71,0.55c0.24,0.18 0.49,0.35 0.74,0.51c0.25,0.16 0.5,0.32 0.76,0.47c4.66,2.69 9.32,1.95 11.32,-0.05zM4.16,11.72c0.08,0.05 0.15,0.11 0.21,0.19c0.06,0.08 0.1,0.16 0.13,0.25c0.03,0.09 0.03,0.19 0.02,0.28c-0.01,0.1 -0.04,0.19 -0.08,0.27c-0.03,0.06 -0.07,0.11 -0.12,0.16c-0.05,0.05 -0.1,0.09 -0.16,0.12c-0.06,0.03 -0.12,0.06 -0.18,0.08c-0.06,0.02 -0.13,0.03 -0.2,0.03c-0.03,0 -0.07,0 -0.1,-0.01c-0.03,0 -0.07,-0.01 -0.1,-0.02c-0.03,-0.01 -0.06,-0.02 -0.09,-0.03c-0.03,-0.01 -0.06,-0.03 -0.09,-0.04l-3.02,-1.69c-0.19,-0.09 -0.34,-0.26 -0.4,-0.46c-0.06,-0.2 -0.04,-0.42 0.07,-0.61c0.11,-0.18 0.29,-0.31 0.49,-0.36c0.21,-0.05 0.43,0 0.6,0.12zM6.58,4.63c-0.05,-0.08 -0.07,-0.18 -0.08,-0.27c-0.01,-0.1 0,-0.19 0.02,-0.28c0.03,-0.09 0.07,-0.18 0.13,-0.25c0.06,-0.08 0.13,-0.14 0.21,-0.19c0.08,-0.04 0.18,-0.07 0.27,-0.08c0.09,-0.01 0.19,0 0.28,0.02c0.09,0.02 0.18,0.07 0.25,0.12c0.08,0.06 0.14,0.13 0.19,0.21l1.74,3c0.04,0.08 0.07,0.18 0.08,0.27c0.01,0.1 0,0.19 -0.02,0.28c-0.03,0.09 -0.07,0.18 -0.13,0.25c-0.06,0.08 -0.13,0.14 -0.21,0.19c-0.03,0.02 -0.06,0.03 -0.09,0.04c-0.03,0.01 -0.06,0.02 -0.09,0.03c-0.03,0.01 -0.06,0.01 -0.1,0.02c-0.03,0 -0.07,0.01 -0.1,0.01c-0.07,0 -0.13,-0.01 -0.2,-0.03c-0.06,-0.02 -0.13,-0.05 -0.18,-0.08c-0.06,-0.04 -0.11,-0.08 -0.15,-0.13c-0.05,-0.05 -0.08,-0.11 -0.11,-0.17zM16,6.08c-0.1,0 -0.2,-0.02 -0.29,-0.06c-0.09,-0.04 -0.18,-0.09 -0.25,-0.16c-0.07,-0.07 -0.13,-0.15 -0.16,-0.25c-0.04,-0.09 -0.06,-0.19 -0.06,-0.29v-3.49c0,-0.2 0.08,-0.39 0.22,-0.54c0.14,-0.14 0.34,-0.22 0.54,-0.22c0.2,0 0.39,0.08 0.54,0.22c0.14,0.14 0.22,0.34 0.22,0.54v3.49c0,0.1 -0.02,0.2 -0.06,0.29c-0.04,0.09 -0.09,0.18 -0.16,0.25c-0.07,0.07 -0.15,0.13 -0.25,0.16c-0.09,0.04 -0.19,0.06 -0.29,0.06zM22.68,7.87c-0.08,-0.05 -0.15,-0.12 -0.21,-0.19c-0.06,-0.08 -0.1,-0.16 -0.12,-0.26c-0.02,-0.09 -0.03,-0.19 -0.02,-0.29c0.01,-0.1 0.04,-0.19 0.09,-0.27l1.74,-3c0.05,-0.08 0.12,-0.15 0.19,-0.21c0.08,-0.06 0.16,-0.1 0.25,-0.12c0.09,-0.02 0.19,-0.03 0.28,-0.02c0.09,0.01 0.19,0.04 0.27,0.08c0.08,0.05 0.16,0.11 0.21,0.19c0.06,0.08 0.1,0.16 0.13,0.25c0.03,0.09 0.03,0.19 0.02,0.28c-0.01,0.1 -0.04,0.19 -0.08,0.27l-1.75,3c-0.05,0.08 -0.11,0.16 -0.19,0.21c-0.08,0.06 -0.16,0.1 -0.25,0.13c-0.09,0.03 -0.19,0.03 -0.28,0.02c-0.1,-0.01 -0.19,-0.04 -0.27,-0.08zM31.9,10.25c0.05,0.08 0.08,0.17 0.09,0.27c0.01,0.09 0.01,0.19 -0.01,0.28c-0.02,0.09 -0.06,0.18 -0.11,0.26c-0.05,0.08 -0.12,0.14 -0.2,0.2l-3,1.75c-0.03,0.02 -0.06,0.03 -0.09,0.04c-0.03,0.01 -0.06,0.02 -0.09,0.03c-0.03,0.01 -0.06,0.01 -0.1,0.02c-0.03,0 -0.07,0.01 -0.1,0.01c-0.07,0 -0.13,-0.01 -0.2,-0.03c-0.06,-0.02 -0.13,-0.04 -0.18,-0.08c-0.06,-0.03 -0.11,-0.07 -0.16,-0.12c-0.05,-0.05 -0.09,-0.1 -0.12,-0.16c-0.04,-0.08 -0.07,-0.18 -0.08,-0.27c-0.01,-0.1 0,-0.19 0.02,-0.28c0.03,-0.09 0.07,-0.18 0.13,-0.25c0.06,-0.08 0.13,-0.14 0.21,-0.19l3,-1.74c0.08,-0.04 0.18,-0.07 0.27,-0.08c0.09,-0.01 0.19,0 0.28,0.02c0.09,0.02 0.18,0.07 0.25,0.12c0.08,0.06 0.14,0.13 0.19,0.21z" />
</svg>